<svg width="27" height="22" viewBox="0 0 27 22" fill="none" xmlns="http://www.w3.org/2000/svg">
<path d="M20.5 1.99979L20.5 19.9998C20.4995 20.5301 20.2886 21.0385 19.9136 21.4134C19.5387 21.7884 19.0303 21.9993 18.5 21.9998L14.5 21.9998C13.9697 21.9993 13.4613 21.7884 13.0864 21.4134C12.7114 21.0385 12.5005 20.5301 12.5 19.9998L12.5 1.99979C12.5005 1.46952 12.7114 0.961118 13.0864 0.58616C13.4613 0.211202 13.9697 0.000317938 14.5 -0.000212328L18.5 -0.000212503C19.0303 0.000317717 19.5387 0.211202 19.9136 0.58616C20.2886 0.961118 20.4995 1.46952 20.5 1.99979ZM14.5 19.9998L18.5 19.9998L18.5 1.99979L14.5 1.99979L14.5 19.9998ZM14.5 1.99979L14.5 19.9998C14.4995 20.5301 14.2886 21.0384 13.9136 21.4134C13.5387 21.7883 13.0303 21.9992 12.5 21.9998L8.5 21.9998C7.96973 21.9992 7.46133 21.7883 7.08637 21.4134C6.71141 21.0384 6.50053 20.53 6.5 19.9998L6.5 1.99977C6.50053 1.4695 6.71141 0.961097 7.08637 0.586139C7.46133 0.211181 7.96973 0.000299127 8.5 -0.000231139L12.5 -0.000231314C13.0303 0.000298906 13.5387 0.211181 13.9136 0.586139C14.2886 0.961097 14.4995 1.46952 14.5 1.99979ZM8.5 19.9998L12.5 19.9998L12.5 1.99979L8.5 1.99977L8.5 19.9998ZM8.5 1.99977L8.5 19.9998C8.49947 20.53 8.28859 21.0384 7.91363 21.4134C7.53867 21.7883 7.03027 21.9992 6.5 21.9998L2.5 21.9998C1.96973 21.9992 1.46133 21.7883 1.08637 21.4134C0.711413 21.0384 0.500529 20.53 0.5 19.9998L0.499999 1.99977C0.500529 1.4695 0.711412 0.961098 1.08637 0.58614C1.46133 0.211182 1.96973 0.000299389 2.5 -0.000230877L6.5 -0.000231051C7.03027 0.000299168 7.53867 0.211181 7.91363 0.586139C8.28859 0.961097 8.49947 1.4695 8.5 1.99977ZM2.5 19.9998L6.5 19.9998L6.5 1.99977L2.5 1.99977L2.5 19.9998Z" fill="white"/>
<path d="M26.5 2.00001L26.5 20C26.4995 20.5303 26.2886 21.0387 25.9136 21.4136C25.5387 21.7886 25.0303 21.9995 24.5 22L20.5 22C19.9697 21.9995 19.4613 21.7886 19.0864 21.4136C18.7114 21.0387 18.5005 20.5301 18.5 19.9998L18.5 1.99979C18.5005 1.46952 18.7114 0.961339 19.0864 0.586381C19.4613 0.211423 19.9697 0.000540836 20.5 1.05699e-05L24.5 1.0395e-05C25.0303 0.000540615 25.5387 0.211423 25.9136 0.586381C26.2886 0.961339 26.4995 1.46974 26.5 2.00001ZM20.5 19.9998L24.5 20L24.5 2.00001L20.5 1.99979L20.5 19.9998Z" fill="white"/>
</svg>
